HIERARCHY
ROOT joint_Root
{
	OFFSET 0.0 0.0 0.0
	CHANNELS 6 Xposition Yposition Zposition Zrotation Xrotation Yrotation 
	JOINT Hips
	{
		OFFSET -17.1583 93.1646 452.98
		CHANNELS 6 Xposition Yposition Zposition Zrotation Xrotation Yrotation 
		JOINT Spine
		{
			OFFSET 15.7357 0.0 0.0
			CHANNELS 6 Xposition Yposition Zposition Zrotation Xrotation Yrotation 
			JOINT Chest
			{
				OFFSET 8.98455 -0.406207 0.0
				CHANNELS 6 Xposition Yposition Zposition Zrotation Xrotation Yrotation 
				JOINT Neck
				{
					OFFSET 16.3773 0.0 0.0
					CHANNELS 6 Xposition Yposition Zposition Zrotation Xrotation Yrotation 
					JOINT Head
					{
						OFFSET 6.45672 0.0 0.0
						CHANNELS 6 Xposition Yposition Zposition Zrotation Xrotation Yrotation 
						End Site
						{
							OFFSET 0.0 0.0 0.0
						}
					}
				}
				JOINT Shoulder_L
				{
					OFFSET 12.9942 -0.242716 4.98039
					CHANNELS 6 Xposition Yposition Zposition Zrotation Xrotation Yrotation 
					JOINT UpperArm_L
					{
						OFFSET 5.34809 0.0 0.0
						CHANNELS 6 Xposition Yposition Zposition Zrotation Xrotation Yrotation 
						JOINT LowerArm_L
						{
							OFFSET 24.3286 1.87007e-05 0.0
							CHANNELS 6 Xposition Yposition Zposition Zrotation Xrotation Yrotation 
							JOINT Hand_L
							{
								OFFSET 22.2916 0.0 0.0
								CHANNELS 6 Xposition Yposition Zposition Zrotation Xrotation Yrotation 
								End Site
								{
									OFFSET 0.0 0.0 0.0
								}
							}
						}
					}
				}
				JOINT Shoulder_R
				{
					OFFSET 12.9945 -0.242716 -4.98039
					CHANNELS 6 Xposition Yposition Zposition Zrotation Xrotation Yrotation 
					JOINT UpperArm_R
					{
						OFFSET -5.34813 0.0 0.0
						CHANNELS 6 Xposition Yposition Zposition Zrotation Xrotation Yrotation 
						JOINT LowerArm_R
						{
							OFFSET -24.3289 0.000322201 0.0
							CHANNELS 6 Xposition Yposition Zposition Zrotation Xrotation Yrotation 
							JOINT Hand_R
							{
								OFFSET -22.2915 -0.000108084 0.0
								CHANNELS 6 Xposition Yposition Zposition Zrotation Xrotation Yrotation 
								End Site
								{
									OFFSET 0.0 0.0 0.0
								}
							}
						}
					}
				}
			}
		}
		JOINT UpperLeg_L
		{
			OFFSET -2.19248 -6.46944 0.0
			CHANNELS 6 Xposition Yposition Zposition Zrotation Xrotation Yrotation 
			JOINT LowerLeg_L
			{
				OFFSET 39.0811 0.0 -1.23785e-05
				CHANNELS 6 Xposition Yposition Zposition Zrotation Xrotation Yrotation 
				JOINT Foot_L
				{
					OFFSET 40.9854 0.0 -1.26872e-05
					CHANNELS 6 Xposition Yposition Zposition Zrotation Xrotation Yrotation 
					JOINT Toes_L
					{
						OFFSET 11.7543 0.0 0.0
						CHANNELS 6 Xposition Yposition Zposition Zrotation Xrotation Yrotation 
						End Site
						{
							OFFSET 0.0 0.0 0.0
						}
					}
				}
			}
		}
		JOINT UpperLeg_R
		{
			OFFSET -2.19251 6.46944 0.0
			CHANNELS 6 Xposition Yposition Zposition Zrotation Xrotation Yrotation 
			JOINT LowerLeg_R
			{
				OFFSET -39.0811 -0.00228153 -0.0401928
				CHANNELS 6 Xposition Yposition Zposition Zrotation Xrotation Yrotation 
				JOINT Foot_R
				{
					OFFSET -40.9854 0.0 0.0
					CHANNELS 6 Xposition Yposition Zposition Zrotation Xrotation Yrotation 
					JOINT Toes_R
					{
						OFFSET -11.7543 0.0 0.0
						CHANNELS 6 Xposition Yposition Zposition Zrotation Xrotation Yrotation 
						End Site
						{
							OFFSET 0.0 0.0 0.0
						}
					}
				}
			}
		}
	}
}
MOTION
Frames:	7
Frame Time:	0.0333333
0.000000 0.000000 0.000000 0.000000 0.000000 -0.000000 -5.098440 92.188900 -2.344790 84.057200 -2.650370 2.152430 15.735700 0.000005 -0.000001 68.591200 88.119900 -66.555600 8.984550 -0.406207 -0.000000 -4.234660 -1.584560 4.015040 16.377300 -0.000001 -0.000001 9.332140 1.730620 6.903270 6.456720 -0.000001 -0.000000 6.280570 5.136040 17.667400 12.994200 -0.242716 4.980390 -91.850200 5.601670 -71.689100 5.348090 -0.000007 -0.000001 -74.067800 32.230500 2.039060 24.328600 0.000019 0.000005 12.585000 27.808600 -25.573200 22.291600 -0.000001 0.000005 -3.532940 4.960830 8.141540 12.994500 -0.242716 -4.980390 87.710300 6.702400 -71.089300 -5.348130 -0.000001 -0.000004 -66.469000 2.106230 -5.644380 -24.328900 0.000322 -0.000009 17.945500 -20.207600 -136.844000 -22.291500 -0.000108 -0.000004 61.436000 5.659140 -15.962300 -2.192480 -6.469440 -0.000000 -170.812000 0.734302 -5.888590 39.081100 -0.000007 -0.000012 0.367708 -0.713596 27.262400 40.985400 -0.000006 -0.000013 -1.005100 5.892430 -75.282600 11.754300 -0.000000 0.000003 0.001076 0.146947 -10.617500 -2.192510 6.469440 -0.000001 -169.111000 7.240250 -179.019000 -39.081100 -0.002282 -0.040193 0.062795 -0.227795 14.630200 -40.985400 0.000008 0.000006 4.075600 4.526370 -69.306600 -11.754300 -0.000006 -0.000006 -0.009996 0.271275 -5.552210
0.000000 0.000000 0.000000 0.000000 0.000000 -0.000000 -5.094310 92.191700 -2.279810 84.071300 -2.541390 2.148340 15.735700 0.000005 -0.000001 68.477000 88.113900 -66.460000 8.984550 -0.406207 -0.000000 -4.226470 -1.593830 3.977660 16.377300 -0.000001 -0.000001 9.375570 1.740770 6.810590 6.456720 -0.000001 -0.000000 6.279670 5.157650 17.697900 12.994200 -0.242716 4.980390 -91.854900 5.606490 -71.660100 5.348090 -0.000007 -0.000001 -73.938600 32.375300 1.823890 24.328600 0.000019 0.000005 12.641900 27.727600 -25.737400 22.291600 -0.000001 0.000005 -3.668320 4.959610 8.166930 12.994500 -0.242716 -4.980390 87.698000 6.746220 -71.109000 -5.348130 -0.000001 -0.000004 -66.439500 1.987080 -5.635430 -24.328900 0.000322 -0.000009 18.028200 -20.236700 -136.743000 -22.291500 -0.000108 -0.000004 61.311800 5.657280 -15.755800 -2.192480 -6.469440 -0.000000 -170.824000 0.738180 -5.841610 39.081100 -0.000007 -0.000012 0.365598 -0.711287 27.203800 40.985400 -0.000006 -0.000013 -0.982762 5.955650 -75.273400 11.754300 -0.000000 0.000003 0.001073 0.147013 -10.614800 -2.192510 6.469440 -0.000001 -169.146000 7.284700 -178.973000 -39.081100 -0.002282 -0.040193 0.060854 -0.221045 14.586600 -40.985400 0.000008 0.000006 3.970720 4.517250 -69.286200 -11.754300 -0.000006 -0.000006 -0.009782 0.269669 -5.617900
0.000000 0.000000 0.000000 0.000000 0.000000 -0.000000 -5.080240 92.195200 -2.211820 84.100800 -2.442700 2.143310 15.735700 0.000005 -0.000001 68.216600 88.117000 -66.212400 8.984550 -0.406207 -0.000000 -4.238440 -1.606360 3.951370 16.377300 -0.000001 -0.000001 9.408840 1.795440 6.707130 6.456720 -0.000001 -0.000000 6.314620 5.181660 17.690200 12.994200 -0.242716 4.980390 -91.870300 5.659770 -71.679900 5.348090 -0.000007 -0.000001 -73.854400 32.403700 1.725530 24.328600 0.000019 0.000005 12.663000 27.693400 -25.801500 22.291600 -0.000001 0.000005 -3.656240 4.960070 8.157270 12.994500 -0.242716 -4.980390 87.690000 6.780780 -71.137000 -5.348130 -0.000001 -0.000004 -66.370000 1.856040 -5.594900 -24.328900 0.000322 -0.000009 17.855300 -19.982800 -136.691000 -22.291500 -0.000108 -0.000004 61.035800 5.658130 -15.848200 -2.192480 -6.469440 -0.000000 -170.864000 0.777900 -5.787100 39.081100 -0.000007 -0.000012 0.366812 -0.715447 27.145300 40.985400 -0.000006 -0.000013 -0.952792 6.021000 -75.343300 11.754300 -0.000000 0.000003 0.000977 0.149141 -10.528400 -2.192510 6.469440 -0.000001 -169.197000 7.343280 -178.924000 -39.081100 -0.002282 -0.040193 0.059926 -0.218017 14.552300 -40.985400 0.000008 0.000006 3.873600 4.481960 -69.321800 -11.754300 -0.000006 -0.000006 -0.009961 0.271012 -5.562960
0.000000 0.000000 0.000000 0.000000 0.000000 -0.000000 -5.063310 92.183900 -2.157460 84.089200 -2.376950 2.118960 15.735700 0.000005 -0.000001 67.863900 88.108100 -65.870600 8.984550 -0.406207 -0.000000 -4.230550 -1.633210 3.928550 16.377300 -0.000001 -0.000001 9.405860 1.806260 6.671010 6.456720 -0.000001 -0.000000 6.377070 5.320070 17.599100 12.994200 -0.242716 4.980390 -91.881800 5.677120 -71.627300 5.348090 -0.000007 -0.000001 -73.779700 32.336500 1.578080 24.328600 0.000019 0.000005 12.711800 27.815100 -25.800200 22.291600 -0.000001 0.000005 -3.530730 4.958040 8.198950 12.994500 -0.242716 -4.980390 87.670600 6.832570 -71.123200 -5.348130 -0.000001 -0.000004 -66.287500 1.819290 -5.655790 -24.328900 0.000322 -0.000009 17.846300 -19.813400 -136.473000 -22.291500 -0.000108 -0.000004 60.784000 5.656960 -15.721800 -2.192480 -6.469440 -0.000000 -170.851000 0.760857 -5.822830 39.081100 -0.000007 -0.000012 0.362009 -0.704950 27.182500 40.985400 -0.000006 -0.000013 -0.922730 6.074010 -75.264400 11.754300 -0.000000 0.000003 0.001107 0.146251 -10.645700 -2.192510 6.469440 -0.000001 -169.184000 7.283190 -178.927000 -39.081100 -0.002282 -0.040193 0.061148 -0.222403 14.572500 -40.985400 0.000008 0.000006 3.924060 4.406800 -69.345900 -11.754300 -0.000006 -0.000006 -0.009837 0.270081 -5.601030
0.000000 0.000000 0.000000 0.000000 0.000000 -0.000000 -5.021710 92.190500 -2.091350 84.130800 -2.365190 2.138090 15.735700 0.000005 -0.000001 68.208100 88.099400 -66.237100 8.984550 -0.406207 -0.000000 -4.206410 -1.615920 3.884930 16.377300 -0.000001 -0.000001 9.374280 1.842400 6.575880 6.456720 -0.000001 -0.000000 6.468250 5.385510 17.553700 12.994200 -0.242716 4.980390 -91.883900 5.680570 -71.618500 5.348090 -0.000007 -0.000001 -73.806600 32.227500 1.548670 24.328600 0.000019 0.000005 12.657900 27.783200 -25.725400 22.291600 -0.000001 0.000005 -3.541460 4.956060 8.240250 12.994500 -0.242716 -4.980390 87.667300 6.839420 -71.116100 -5.348130 -0.000001 -0.000004 -66.259600 1.741420 -5.637720 -24.328900 0.000322 -0.000009 17.866300 -19.667700 -136.236000 -22.291500 -0.000108 -0.000004 60.644600 5.656540 -15.674800 -2.192480 -6.469440 -0.000000 -170.916000 0.722321 -5.708830 39.081100 -0.000007 -0.000012 0.361381 -0.706290 27.097900 40.985400 -0.000006 -0.000013 -0.879229 6.128200 -75.343000 11.754300 -0.000000 0.000003 0.001054 0.147454 -10.596900 -2.192510 6.469440 -0.000001 -169.265000 7.246970 -178.858000 -39.081100 -0.002282 -0.040193 0.060104 -0.218516 14.564000 -40.985400 0.000008 0.000006 3.800750 4.362880 -69.386200 -11.754300 -0.000006 -0.000006 -0.010122 0.272216 -5.513730
0.000000 0.000000 0.000000 0.000000 0.000000 -0.000000 -4.995510 92.179700 -2.035090 84.103400 -2.330480 2.125580 15.735700 0.000005 -0.000001 68.235800 88.086200 -66.263200 8.984550 -0.406207 -0.000000 -4.181090 -1.623710 3.888040 16.377300 -0.000001 -0.000001 9.422770 1.885360 6.493170 6.456720 -0.000001 -0.000000 6.421950 5.370970 17.482800 12.994200 -0.242716 4.980390 -91.904600 5.733020 -71.587700 5.348090 -0.000007 -0.000001 -73.748600 32.309700 1.513180 24.328600 0.000019 0.000005 12.621700 27.762500 -25.674600 22.291600 -0.000001 0.000005 -3.366780 4.956100 8.239470 12.994500 -0.242716 -4.980390 87.674000 6.806240 -71.081500 -5.348130 -0.000001 -0.000004 -66.278600 1.700700 -5.639770 -24.328900 0.000322 -0.000009 17.927900 -19.576100 -136.002000 -22.291500 -0.000108 -0.000004 60.513800 5.654630 -15.475200 -2.192480 -6.469440 -0.000000 -170.906000 0.704803 -5.727060 39.081100 -0.000007 -0.000012 0.364665 -0.710861 27.158200 40.985400 -0.000006 -0.000013 -0.839492 6.171620 -75.356900 11.754300 -0.000000 0.000003 0.001037 0.147819 -10.582100 -2.192510 6.469440 -0.000001 -169.249000 7.226060 -178.859000 -39.081100 -0.002282 -0.040193 0.059910 -0.217217 14.599500 -40.985400 0.000008 0.000006 3.752100 4.279350 -69.386200 -11.754300 -0.000006 -0.000006 -0.009870 0.270333 -5.590740
0.000000 0.000000 0.000000 0.000000 0.000000 -0.000000 -4.949360 92.182500 -1.966750 84.143100 -2.301450 2.125040 15.735700 0.000005 -0.000001 68.366600 88.085400 -66.416600 8.984550 -0.406207 -0.000000 -4.176910 -1.613770 3.843480 16.377300 -0.000001 -0.000001 9.466430 1.896180 6.471180 6.456720 -0.000001 -0.000000 6.438150 5.389060 17.419200 12.994200 -0.242716 4.980390 -91.909900 5.750090 -71.590800 5.348090 -0.000007 -0.000001 -73.768700 32.323100 1.600330 24.328600 0.000019 0.000005 12.560500 27.647100 -25.648100 22.291600 -0.000001 0.000005 -3.598830 4.957040 8.220050 12.994500 -0.242716 -4.980390 87.667400 6.819980 -71.067200 -5.348130 -0.000001 -0.000004 -66.248300 1.618840 -5.569240 -24.328900 0.000322 -0.000009 17.769000 -19.316400 -135.907000 -22.291500 -0.000108 -0.000004 60.299100 5.654100 -15.420000 -2.192480 -6.469440 -0.000000 -170.992000 0.717061 -5.651000 39.081100 -0.000007 -0.000012 0.367674 -0.718375 27.104900 40.985400 -0.000006 -0.000013 -0.803421 6.144610 -75.443400 11.754300 -0.000000 0.000003 0.000913 0.150510 -10.472900 -2.192510 6.469440 -0.000001 -169.330000 7.237360 -178.814000 -39.081100 -0.002282 -0.040193 0.059954 -0.217338 14.602600 -40.985400 0.000008 0.000006 3.688030 4.272210 -69.441000 -11.754300 -0.000006 -0.000006 -0.009960 0.271004 -5.563320
